Coordinates
version=1
nRows=54
nColumns=12
inDegrees=yes

Units are S.I. units (second, meters, Newtons, ...)
Angles are in degrees

endheader
time	SC_y	SC_z	SC_x	AC_y	AC_z	AC_x	GH_y	GH_z	GH_yy	EL_x	PS_y
       0.0              -49.29          6.199           9.98          52.93         -17.76          6.556          104.4          62.97         -28.53          22.34          5.584
   0.01912              -49.29            6.2          9.979          52.93         -17.76          6.554          104.4          62.97         -28.53          22.35          5.597
   0.03824              -49.29          6.202          9.978          52.93         -17.76          6.551          104.4          62.98         -28.53          22.35           5.61
   0.05736              -49.29          6.203          9.976          52.93         -17.76          6.549          104.4          62.98         -28.52          22.35          5.624
   0.07648              -49.29          6.205          9.975          52.93         -17.75          6.546          104.4          62.98         -28.52          22.36          5.639
    0.0956              -49.29          6.206          9.973          52.94         -17.75          6.542          104.3          62.98         -28.51          22.36          5.655
    0.1147              -49.29          6.208          9.972          52.94         -17.75          6.539          104.3          62.98         -28.51          22.36          5.672
    0.1338              -49.29           6.21           9.97          52.94         -17.75          6.536          104.3          62.99         -28.51          22.37           5.69
     0.153              -49.29          6.212          9.969          52.94         -17.74          6.532          104.3          62.99          -28.5          22.37          5.709
    0.1721              -49.29          6.214          9.967          52.95         -17.74          6.528          104.3          62.99          -28.5          22.38           5.73
    0.1912              -49.29          6.216          9.965          52.95         -17.74          6.523          104.2           63.0         -28.49          22.38          5.752
    0.2103               -49.3          6.218          9.962          52.95         -17.73          6.518          104.2           63.0         -28.49          22.39          5.777
    0.2294               -49.3          6.221           9.96          52.95         -17.73          6.513          104.2           63.0         -28.48           22.4          5.803
    0.2486               -49.3          6.224          9.958          52.96         -17.73          6.508          104.2          63.01         -28.47           22.4          5.831
    0.2677               -49.3          6.227          9.955          52.96         -17.72          6.502          104.1          63.01         -28.47          22.41          5.861
    0.2868               -49.3           6.23          9.952          52.97         -17.72          6.495          104.1          63.02         -28.46          22.42          5.894
    0.3059               -49.3          6.234          9.949          52.97         -17.71          6.488          104.0          63.02         -28.45          22.43           5.93
    0.3251               -49.3          6.238          9.945          52.97         -17.71           6.48          104.0          63.03         -28.44          22.44          5.969
    0.3442               -49.3          6.242          9.941          52.98          -17.7          6.472          103.9          63.03         -28.43          22.45          6.011
    0.3633               -49.3          6.247          9.937          52.99         -17.69          6.463          103.9          63.04         -28.42          22.46          6.058
    0.3824               -49.3          6.252          9.932          52.99         -17.69          6.452          103.8          63.05         -28.41          22.47          6.109
    0.4015               -49.3          6.257          9.927           53.0         -17.68          6.441          103.8          63.05          -28.4          22.48          6.165
    0.4207               -49.3          6.264          9.922          53.01         -17.67          6.429          103.7          63.06         -28.38           22.5          6.228
    0.4398               -49.3          6.271          9.915          53.02         -17.66          6.415          103.6          63.07         -28.36          22.51          6.297
    0.4589              -49.31          6.278          9.908          53.02         -17.65            6.4          103.5          63.08         -28.35          22.53          6.373
     0.478              -49.31          6.287          9.901          53.03         -17.64          6.383          103.4          63.09         -28.33          22.55          6.459
    0.4971              -49.31          6.297          9.892          53.05         -17.62          6.364          103.3          63.11          -28.3          22.57          6.555
    0.5163              -49.31          6.307          9.882          53.06         -17.61          6.343          103.2          63.12         -28.28           22.6          6.662
    0.5354              -49.31           6.32          9.871          53.07         -17.59          6.319          103.1          63.14         -28.25          22.63          6.784
    0.5545              -49.32          6.334          9.859          53.09         -17.57          6.291          102.9          63.16         -28.22          22.66          6.922
    0.5736              -49.32          6.349          9.844          53.11         -17.55           6.26          102.8          63.18         -28.18           22.7           7.08
    0.5927              -49.32          6.368          9.828          53.13         -17.52          6.224          102.5           63.2         -28.14          22.74          7.261
    0.6119              -49.33          6.389          9.809          53.16         -17.49          6.182          102.3          63.23         -28.09          22.79           7.47
     0.631              -49.33          6.413          9.787          53.19         -17.46          6.134          102.0          63.27         -28.03          22.85          7.713
    0.6501              -49.34          6.442          9.761          53.22         -17.42          6.078          101.7           63.3         -27.97          22.92          7.998
    0.6692              -49.34          6.475          9.731          53.26         -17.37          6.011          101.3          63.35         -27.89           23.0          8.333
    0.6883              -49.35          6.515          9.695          53.31         -17.31          5.933          100.9          63.41         -27.79          23.09          8.731
    0.7075              -49.36          6.563          9.651          53.37         -17.24          5.838          100.4          63.47         -27.68          23.21          9.208
    0.7266              -49.37          6.621          9.599          53.44         -17.16          5.723          99.72          63.55         -27.55          23.34          9.786
    0.7457              -49.38          6.692          9.535          53.53         -17.06          5.583          98.93          63.65         -27.38          23.51          10.49
    0.7648               -49.4           6.78          9.456          53.63         -16.94          5.411          97.95          63.77         -27.18          23.72          11.36
    0.7839              -49.42          6.889          9.358          53.77         -16.78          5.195          96.73          63.92         -26.92          23.98          12.45
    0.8031              -49.44          7.026          9.234          53.93         -16.59          4.924           95.2           64.1          -26.6           24.3          13.82
    0.8222              -49.47          7.201          9.076          54.15         -16.34           4.58          93.25          64.34         -26.19          24.71          15.55
    0.8413              -49.51          7.424          8.875          54.42         -16.02          4.138          90.76          64.65         -25.67          25.24          17.78
    0.8604              -49.56          7.711          8.616          54.77         -15.62          3.572          87.56          65.04          -25.0          25.92          20.64
    0.8796              -49.63          8.078          8.285          55.21          -15.1          2.849          83.47          65.54         -24.15          26.79          24.28
    0.8987              -49.71          8.539          7.869          55.77         -14.44          1.939          78.33          66.17         -23.07          27.88          28.87
    0.9178              -49.82            9.1          7.363          56.46         -13.65         0.8306          72.06          66.94         -21.76          29.21          34.46
    0.9369              -49.93          9.752          6.776          57.25         -12.72        -0.4542           64.8          67.83         -20.24          30.75          40.94
     0.956              -50.06          10.46           6.14          58.11         -11.72         -1.845          56.94           68.8          -18.6          32.41          47.96
    0.9752              -50.19          11.16          5.504          58.96         -10.72         -3.237          49.07          69.76         -16.95          34.08          54.97
    0.9943              -50.31          11.81          4.917          59.76         -9.801         -4.521          41.81          70.65         -15.44          35.62          61.45
     1.013              -50.41          12.37           4.41          60.44         -9.005          -5.63          35.55          71.42         -14.13          36.95          67.04
